<mxfile host="app.diagrams.net" modified="2024-05-12T08:27:31.639Z" agent="Mozilla/5.0 (Windows NT 10.0; Win64; x64) AppleWebKit/537.36 (KHTML, like Gecko) Chrome/125.0.0.0 Safari/537.36" etag="duk-fsHwV1XIFUx-50fB" version="24.4.0" type="device">
  <diagram id="R2lEEEUBdFMjLlhIrx00" name="Page-1">
    <mxGraphModel dx="871" dy="913" grid="1" gridSize="10" guides="1" tooltips="1" connect="1" arrows="1" fold="1" page="1" pageScale="1" pageWidth="850" pageHeight="1100" math="0" shadow="0" extFonts="Permanent Marker^https://fonts.googleapis.com/css?family=Permanent+Marker">
      <root>
        <mxCell id="0" />
        <mxCell id="1" parent="0" />
        <mxCell id="jll7YxEorCh3mh36muq5-1" value="Book" style="whiteSpace=wrap;html=1;align=center;" parent="1" vertex="1">
          <mxGeometry x="200" y="180" width="100" height="40" as="geometry" />
        </mxCell>
        <mxCell id="jll7YxEorCh3mh36muq5-2" value="Media" style="whiteSpace=wrap;html=1;align=center;" parent="1" vertex="1">
          <mxGeometry x="410" y="360" width="100" height="40" as="geometry" />
        </mxCell>
        <mxCell id="jll7YxEorCh3mh36muq5-4" value="Author" style="ellipse;whiteSpace=wrap;html=1;align=center;" parent="1" vertex="1">
          <mxGeometry x="40" y="260" width="100" height="40" as="geometry" />
        </mxCell>
        <mxCell id="jll7YxEorCh3mh36muq5-5" value="CoverType" style="ellipse;whiteSpace=wrap;html=1;align=center;" parent="1" vertex="1">
          <mxGeometry x="40" y="180" width="100" height="40" as="geometry" />
        </mxCell>
        <mxCell id="jll7YxEorCh3mh36muq5-7" value="Publisher" style="ellipse;whiteSpace=wrap;html=1;align=center;" parent="1" vertex="1">
          <mxGeometry x="40" y="220" width="100" height="40" as="geometry" />
        </mxCell>
        <mxCell id="jll7YxEorCh3mh36muq5-8" value="PublishDate" style="ellipse;whiteSpace=wrap;html=1;align=center;" parent="1" vertex="1">
          <mxGeometry x="40" y="140" width="100" height="40" as="geometry" />
        </mxCell>
        <mxCell id="jll7YxEorCh3mh36muq5-9" style="edgeStyle=orthogonalEdgeStyle;rounded=0;orthogonalLoop=1;jettySize=auto;html=1;exitX=0.5;exitY=1;exitDx=0;exitDy=0;" parent="1" source="jll7YxEorCh3mh36muq5-4" target="jll7YxEorCh3mh36muq5-4" edge="1">
          <mxGeometry relative="1" as="geometry" />
        </mxCell>
        <mxCell id="jll7YxEorCh3mh36muq5-10" value="Language" style="ellipse;whiteSpace=wrap;html=1;align=center;" parent="1" vertex="1">
          <mxGeometry x="200" y="40" width="100" height="40" as="geometry" />
        </mxCell>
        <mxCell id="jll7YxEorCh3mh36muq5-11" value="NoPages" style="ellipse;whiteSpace=wrap;html=1;align=center;" parent="1" vertex="1">
          <mxGeometry x="120" y="70" width="100" height="40" as="geometry" />
        </mxCell>
        <mxCell id="jll7YxEorCh3mh36muq5-14" value="BookCategory" style="ellipse;whiteSpace=wrap;html=1;align=center;" parent="1" vertex="1">
          <mxGeometry x="270" y="70" width="100" height="40" as="geometry" />
        </mxCell>
        <mxCell id="jll7YxEorCh3mh36muq5-18" value="CD" style="whiteSpace=wrap;html=1;align=center;" parent="1" vertex="1">
          <mxGeometry x="590" y="150" width="100" height="40" as="geometry" />
        </mxCell>
        <mxCell id="jll7YxEorCh3mh36muq5-20" value="MusicType" style="ellipse;whiteSpace=wrap;html=1;align=center;" parent="1" vertex="1">
          <mxGeometry x="730" y="180" width="100" height="40" as="geometry" />
        </mxCell>
        <mxCell id="jll7YxEorCh3mh36muq5-21" value="RecordLabel" style="ellipse;whiteSpace=wrap;html=1;align=center;" parent="1" vertex="1">
          <mxGeometry x="740" y="130" width="100" height="40" as="geometry" />
        </mxCell>
        <mxCell id="jll7YxEorCh3mh36muq5-22" value="Artist" style="ellipse;whiteSpace=wrap;html=1;align=center;" parent="1" vertex="1">
          <mxGeometry x="730" y="80" width="100" height="40" as="geometry" />
        </mxCell>
        <mxCell id="jll7YxEorCh3mh36muq5-23" value="ReleaseDate" style="ellipse;whiteSpace=wrap;html=1;align=center;" parent="1" vertex="1">
          <mxGeometry x="640" y="60" width="100" height="40" as="geometry" />
        </mxCell>
        <mxCell id="jll7YxEorCh3mh36muq5-26" value="DVD" style="whiteSpace=wrap;html=1;align=center;" parent="1" vertex="1">
          <mxGeometry x="510" y="670" width="100" height="40" as="geometry" />
        </mxCell>
        <mxCell id="jll7YxEorCh3mh36muq5-28" value="ReleaseDate" style="ellipse;whiteSpace=wrap;html=1;align=center;" parent="1" vertex="1">
          <mxGeometry x="680" y="590" width="100" height="40" as="geometry" />
        </mxCell>
        <mxCell id="jll7YxEorCh3mh36muq5-30" value="Subtitle" style="ellipse;whiteSpace=wrap;html=1;align=center;" parent="1" vertex="1">
          <mxGeometry x="730" y="630" width="100" height="40" as="geometry" />
        </mxCell>
        <mxCell id="jll7YxEorCh3mh36muq5-31" value="ImageURL" style="ellipse;whiteSpace=wrap;html=1;align=center;" parent="1" vertex="1">
          <mxGeometry x="670" y="320" width="100" height="40" as="geometry" />
        </mxCell>
        <mxCell id="jll7YxEorCh3mh36muq5-32" value="Studio" style="ellipse;whiteSpace=wrap;html=1;align=center;" parent="1" vertex="1">
          <mxGeometry x="680" y="750" width="100" height="40" as="geometry" />
        </mxCell>
        <mxCell id="jll7YxEorCh3mh36muq5-33" value="Runtime" style="ellipse;whiteSpace=wrap;html=1;align=center;" parent="1" vertex="1">
          <mxGeometry x="730" y="710" width="100" height="40" as="geometry" />
        </mxCell>
        <mxCell id="jll7YxEorCh3mh36muq5-35" value="is a" style="shape=rhombus;perimeter=rhombusPerimeter;whiteSpace=wrap;html=1;align=center;" parent="1" vertex="1">
          <mxGeometry x="260" y="250" width="120" height="60" as="geometry" />
        </mxCell>
        <mxCell id="jll7YxEorCh3mh36muq5-36" value="is a" style="shape=rhombus;perimeter=rhombusPerimeter;whiteSpace=wrap;html=1;align=center;" parent="1" vertex="1">
          <mxGeometry x="400" y="210" width="120" height="60" as="geometry" />
        </mxCell>
        <mxCell id="jll7YxEorCh3mh36muq5-38" value="Id" style="ellipse;whiteSpace=wrap;html=1;align=center;fontStyle=4;" parent="1" vertex="1">
          <mxGeometry x="40" y="100" width="100" height="40" as="geometry" />
        </mxCell>
        <mxCell id="jll7YxEorCh3mh36muq5-39" value="Id" style="ellipse;whiteSpace=wrap;html=1;align=center;fontStyle=4;" parent="1" vertex="1">
          <mxGeometry x="540" y="60" width="100" height="40" as="geometry" />
        </mxCell>
        <mxCell id="jll7YxEorCh3mh36muq5-40" value="Id" style="ellipse;whiteSpace=wrap;html=1;align=center;fontStyle=4;" parent="1" vertex="1">
          <mxGeometry x="610" y="280" width="100" height="40" as="geometry" />
        </mxCell>
        <mxCell id="jll7YxEorCh3mh36muq5-42" value="Price" style="ellipse;whiteSpace=wrap;html=1;align=center;" parent="1" vertex="1">
          <mxGeometry x="610" y="360" width="100" height="40" as="geometry" />
        </mxCell>
        <mxCell id="jll7YxEorCh3mh36muq5-43" value="Quantity" style="ellipse;whiteSpace=wrap;html=1;align=center;" parent="1" vertex="1">
          <mxGeometry x="670" y="400" width="100" height="40" as="geometry" />
        </mxCell>
        <mxCell id="jll7YxEorCh3mh36muq5-44" value="Category" style="ellipse;whiteSpace=wrap;html=1;align=center;" parent="1" vertex="1">
          <mxGeometry x="610" y="440" width="100" height="40" as="geometry" />
        </mxCell>
        <mxCell id="jll7YxEorCh3mh36muq5-45" value="Value" style="ellipse;whiteSpace=wrap;html=1;align=center;" parent="1" vertex="1">
          <mxGeometry x="540" y="470" width="100" height="40" as="geometry" />
        </mxCell>
        <mxCell id="jll7YxEorCh3mh36muq5-46" value="Title" style="ellipse;whiteSpace=wrap;html=1;align=center;" parent="1" vertex="1">
          <mxGeometry x="560" y="240" width="100" height="40" as="geometry" />
        </mxCell>
        <mxCell id="jll7YxEorCh3mh36muq5-48" value="" style="endArrow=none;html=1;rounded=0;entryX=0.5;entryY=1;entryDx=0;entryDy=0;exitX=0;exitY=0;exitDx=0;exitDy=0;" parent="1" source="jll7YxEorCh3mh36muq5-35" target="jll7YxEorCh3mh36muq5-1" edge="1">
          <mxGeometry relative="1" as="geometry">
            <mxPoint x="190" y="330" as="sourcePoint" />
            <mxPoint x="350" y="330" as="targetPoint" />
          </mxGeometry>
        </mxCell>
        <mxCell id="jll7YxEorCh3mh36muq5-49" value="1" style="resizable=0;html=1;whiteSpace=wrap;align=right;verticalAlign=bottom;" parent="jll7YxEorCh3mh36muq5-48" connectable="0" vertex="1">
          <mxGeometry x="1" relative="1" as="geometry">
            <mxPoint x="20" y="20" as="offset" />
          </mxGeometry>
        </mxCell>
        <mxCell id="jll7YxEorCh3mh36muq5-50" value="" style="endArrow=none;html=1;rounded=0;entryX=0;entryY=0;entryDx=0;entryDy=0;exitX=1;exitY=1;exitDx=0;exitDy=0;" parent="1" source="jll7YxEorCh3mh36muq5-35" target="jll7YxEorCh3mh36muq5-2" edge="1">
          <mxGeometry relative="1" as="geometry">
            <mxPoint x="190" y="330" as="sourcePoint" />
            <mxPoint x="350" y="330" as="targetPoint" />
          </mxGeometry>
        </mxCell>
        <mxCell id="jll7YxEorCh3mh36muq5-51" value="1" style="resizable=0;html=1;whiteSpace=wrap;align=right;verticalAlign=bottom;" parent="jll7YxEorCh3mh36muq5-50" connectable="0" vertex="1">
          <mxGeometry x="1" relative="1" as="geometry" />
        </mxCell>
        <mxCell id="jll7YxEorCh3mh36muq5-52" value="" style="endArrow=none;html=1;rounded=0;entryX=0.5;entryY=0;entryDx=0;entryDy=0;exitX=0.5;exitY=1;exitDx=0;exitDy=0;" parent="1" source="jll7YxEorCh3mh36muq5-36" target="jll7YxEorCh3mh36muq5-2" edge="1">
          <mxGeometry relative="1" as="geometry">
            <mxPoint x="190" y="330" as="sourcePoint" />
            <mxPoint x="350" y="330" as="targetPoint" />
          </mxGeometry>
        </mxCell>
        <mxCell id="jll7YxEorCh3mh36muq5-53" value="1" style="resizable=0;html=1;whiteSpace=wrap;align=right;verticalAlign=bottom;" parent="jll7YxEorCh3mh36muq5-52" connectable="0" vertex="1">
          <mxGeometry x="1" relative="1" as="geometry" />
        </mxCell>
        <mxCell id="jll7YxEorCh3mh36muq5-54" value="" style="endArrow=none;html=1;rounded=0;entryX=0;entryY=1;entryDx=0;entryDy=0;exitX=1;exitY=0;exitDx=0;exitDy=0;" parent="1" source="jll7YxEorCh3mh36muq5-36" target="jll7YxEorCh3mh36muq5-18" edge="1">
          <mxGeometry relative="1" as="geometry">
            <mxPoint x="500" y="200" as="sourcePoint" />
            <mxPoint x="350" y="340" as="targetPoint" />
          </mxGeometry>
        </mxCell>
        <mxCell id="jll7YxEorCh3mh36muq5-55" value="1" style="resizable=0;html=1;whiteSpace=wrap;align=right;verticalAlign=bottom;" parent="jll7YxEorCh3mh36muq5-54" connectable="0" vertex="1">
          <mxGeometry x="1" relative="1" as="geometry" />
        </mxCell>
        <mxCell id="jll7YxEorCh3mh36muq5-56" value="" style="endArrow=none;html=1;rounded=0;entryX=0;entryY=0.5;entryDx=0;entryDy=0;exitX=1;exitY=0.5;exitDx=0;exitDy=0;" parent="1" source="jll7YxEorCh3mh36muq5-5" target="jll7YxEorCh3mh36muq5-1" edge="1">
          <mxGeometry relative="1" as="geometry">
            <mxPoint x="110" y="220" as="sourcePoint" />
            <mxPoint x="270" y="220" as="targetPoint" />
          </mxGeometry>
        </mxCell>
        <mxCell id="jll7YxEorCh3mh36muq5-57" value="" style="endArrow=none;html=1;rounded=0;entryX=0;entryY=0.5;entryDx=0;entryDy=0;exitX=1;exitY=0.5;exitDx=0;exitDy=0;" parent="1" source="jll7YxEorCh3mh36muq5-4" target="jll7YxEorCh3mh36muq5-1" edge="1">
          <mxGeometry relative="1" as="geometry">
            <mxPoint x="110" y="220" as="sourcePoint" />
            <mxPoint x="270" y="220" as="targetPoint" />
          </mxGeometry>
        </mxCell>
        <mxCell id="jll7YxEorCh3mh36muq5-58" value="" style="endArrow=none;html=1;rounded=0;entryX=0;entryY=0.5;entryDx=0;entryDy=0;exitX=1;exitY=0.5;exitDx=0;exitDy=0;" parent="1" source="jll7YxEorCh3mh36muq5-7" target="jll7YxEorCh3mh36muq5-1" edge="1">
          <mxGeometry relative="1" as="geometry">
            <mxPoint x="110" y="220" as="sourcePoint" />
            <mxPoint x="270" y="220" as="targetPoint" />
          </mxGeometry>
        </mxCell>
        <mxCell id="jll7YxEorCh3mh36muq5-59" value="" style="endArrow=none;html=1;rounded=0;entryX=0;entryY=0.5;entryDx=0;entryDy=0;exitX=1;exitY=0.5;exitDx=0;exitDy=0;" parent="1" source="jll7YxEorCh3mh36muq5-8" target="jll7YxEorCh3mh36muq5-1" edge="1">
          <mxGeometry relative="1" as="geometry">
            <mxPoint x="110" y="220" as="sourcePoint" />
            <mxPoint x="270" y="220" as="targetPoint" />
          </mxGeometry>
        </mxCell>
        <mxCell id="jll7YxEorCh3mh36muq5-60" value="" style="endArrow=none;html=1;rounded=0;entryX=0;entryY=0.5;entryDx=0;entryDy=0;exitX=1;exitY=0.5;exitDx=0;exitDy=0;" parent="1" source="jll7YxEorCh3mh36muq5-38" target="jll7YxEorCh3mh36muq5-1" edge="1">
          <mxGeometry relative="1" as="geometry">
            <mxPoint x="110" y="220" as="sourcePoint" />
            <mxPoint x="270" y="220" as="targetPoint" />
          </mxGeometry>
        </mxCell>
        <mxCell id="jll7YxEorCh3mh36muq5-61" value="" style="endArrow=none;html=1;rounded=0;entryX=0.5;entryY=0;entryDx=0;entryDy=0;exitX=0.5;exitY=1;exitDx=0;exitDy=0;" parent="1" source="jll7YxEorCh3mh36muq5-11" target="jll7YxEorCh3mh36muq5-1" edge="1">
          <mxGeometry relative="1" as="geometry">
            <mxPoint x="110" y="220" as="sourcePoint" />
            <mxPoint x="270" y="220" as="targetPoint" />
          </mxGeometry>
        </mxCell>
        <mxCell id="jll7YxEorCh3mh36muq5-62" value="" style="endArrow=none;html=1;rounded=0;entryX=0.5;entryY=0;entryDx=0;entryDy=0;exitX=0.5;exitY=1;exitDx=0;exitDy=0;" parent="1" source="jll7YxEorCh3mh36muq5-10" target="jll7YxEorCh3mh36muq5-1" edge="1">
          <mxGeometry relative="1" as="geometry">
            <mxPoint x="110" y="220" as="sourcePoint" />
            <mxPoint x="270" y="220" as="targetPoint" />
          </mxGeometry>
        </mxCell>
        <mxCell id="jll7YxEorCh3mh36muq5-63" value="" style="endArrow=none;html=1;rounded=0;entryX=0.5;entryY=1;entryDx=0;entryDy=0;exitX=0.5;exitY=0;exitDx=0;exitDy=0;" parent="1" source="jll7YxEorCh3mh36muq5-1" target="jll7YxEorCh3mh36muq5-14" edge="1">
          <mxGeometry relative="1" as="geometry">
            <mxPoint x="110" y="220" as="sourcePoint" />
            <mxPoint x="270" y="220" as="targetPoint" />
          </mxGeometry>
        </mxCell>
        <mxCell id="jll7YxEorCh3mh36muq5-64" value="" style="endArrow=none;html=1;rounded=0;entryX=0;entryY=1;entryDx=0;entryDy=0;exitX=1;exitY=0.5;exitDx=0;exitDy=0;" parent="1" source="jll7YxEorCh3mh36muq5-18" target="jll7YxEorCh3mh36muq5-22" edge="1">
          <mxGeometry relative="1" as="geometry">
            <mxPoint x="510" y="100" as="sourcePoint" />
            <mxPoint x="670" y="100" as="targetPoint" />
          </mxGeometry>
        </mxCell>
        <mxCell id="jll7YxEorCh3mh36muq5-65" value="" style="endArrow=none;html=1;rounded=0;entryX=0;entryY=0.5;entryDx=0;entryDy=0;exitX=1;exitY=0.5;exitDx=0;exitDy=0;" parent="1" source="jll7YxEorCh3mh36muq5-18" target="jll7YxEorCh3mh36muq5-21" edge="1">
          <mxGeometry relative="1" as="geometry">
            <mxPoint x="560" y="140" as="sourcePoint" />
            <mxPoint x="720" y="140" as="targetPoint" />
          </mxGeometry>
        </mxCell>
        <mxCell id="jll7YxEorCh3mh36muq5-66" value="" style="endArrow=none;html=1;rounded=0;entryX=0;entryY=0;entryDx=0;entryDy=0;exitX=1;exitY=0.5;exitDx=0;exitDy=0;" parent="1" source="jll7YxEorCh3mh36muq5-18" target="jll7YxEorCh3mh36muq5-20" edge="1">
          <mxGeometry relative="1" as="geometry">
            <mxPoint x="700" y="210" as="sourcePoint" />
            <mxPoint x="720" y="140" as="targetPoint" />
          </mxGeometry>
        </mxCell>
        <mxCell id="jll7YxEorCh3mh36muq5-67" value="" style="endArrow=none;html=1;rounded=0;entryX=0.5;entryY=1;entryDx=0;entryDy=0;exitX=0.5;exitY=0;exitDx=0;exitDy=0;" parent="1" source="jll7YxEorCh3mh36muq5-18" target="jll7YxEorCh3mh36muq5-23" edge="1">
          <mxGeometry relative="1" as="geometry">
            <mxPoint x="560" y="140" as="sourcePoint" />
            <mxPoint x="720" y="140" as="targetPoint" />
          </mxGeometry>
        </mxCell>
        <mxCell id="jll7YxEorCh3mh36muq5-68" value="" style="endArrow=none;html=1;rounded=0;entryX=0.5;entryY=0;entryDx=0;entryDy=0;exitX=0.5;exitY=1;exitDx=0;exitDy=0;" parent="1" source="jll7YxEorCh3mh36muq5-39" target="jll7YxEorCh3mh36muq5-18" edge="1">
          <mxGeometry relative="1" as="geometry">
            <mxPoint x="640" y="130" as="sourcePoint" />
            <mxPoint x="720" y="140" as="targetPoint" />
          </mxGeometry>
        </mxCell>
        <mxCell id="jll7YxEorCh3mh36muq5-69" value="" style="endArrow=none;html=1;rounded=0;entryX=0.5;entryY=1;entryDx=0;entryDy=0;exitX=1;exitY=0.5;exitDx=0;exitDy=0;" parent="1" source="jll7YxEorCh3mh36muq5-2" target="jll7YxEorCh3mh36muq5-46" edge="1">
          <mxGeometry relative="1" as="geometry">
            <mxPoint x="410" y="410" as="sourcePoint" />
            <mxPoint x="570" y="410" as="targetPoint" />
          </mxGeometry>
        </mxCell>
        <mxCell id="jll7YxEorCh3mh36muq5-70" value="" style="endArrow=none;html=1;rounded=0;entryX=0;entryY=1;entryDx=0;entryDy=0;exitX=1;exitY=0.5;exitDx=0;exitDy=0;" parent="1" source="jll7YxEorCh3mh36muq5-2" target="jll7YxEorCh3mh36muq5-40" edge="1">
          <mxGeometry relative="1" as="geometry">
            <mxPoint x="480" y="380" as="sourcePoint" />
            <mxPoint x="640" y="380" as="targetPoint" />
          </mxGeometry>
        </mxCell>
        <mxCell id="jll7YxEorCh3mh36muq5-71" value="" style="endArrow=none;html=1;rounded=0;entryX=0;entryY=0.5;entryDx=0;entryDy=0;exitX=1;exitY=0.5;exitDx=0;exitDy=0;" parent="1" source="jll7YxEorCh3mh36muq5-2" target="jll7YxEorCh3mh36muq5-31" edge="1">
          <mxGeometry relative="1" as="geometry">
            <mxPoint x="480" y="380" as="sourcePoint" />
            <mxPoint x="640" y="380" as="targetPoint" />
          </mxGeometry>
        </mxCell>
        <mxCell id="jll7YxEorCh3mh36muq5-72" value="" style="endArrow=none;html=1;rounded=0;entryX=0;entryY=0;entryDx=0;entryDy=0;exitX=1;exitY=0.5;exitDx=0;exitDy=0;" parent="1" source="jll7YxEorCh3mh36muq5-2" target="jll7YxEorCh3mh36muq5-44" edge="1">
          <mxGeometry relative="1" as="geometry">
            <mxPoint x="460" y="379.52" as="sourcePoint" />
            <mxPoint x="620" y="379.52" as="targetPoint" />
          </mxGeometry>
        </mxCell>
        <mxCell id="jll7YxEorCh3mh36muq5-74" value="" style="endArrow=none;html=1;rounded=0;entryX=0;entryY=0.5;entryDx=0;entryDy=0;exitX=1;exitY=0.5;exitDx=0;exitDy=0;" parent="1" source="jll7YxEorCh3mh36muq5-2" target="jll7YxEorCh3mh36muq5-42" edge="1">
          <mxGeometry relative="1" as="geometry">
            <mxPoint x="400" y="440" as="sourcePoint" />
            <mxPoint x="560" y="440" as="targetPoint" />
          </mxGeometry>
        </mxCell>
        <mxCell id="jll7YxEorCh3mh36muq5-75" value="" style="endArrow=none;html=1;rounded=0;entryX=0;entryY=0.5;entryDx=0;entryDy=0;exitX=1;exitY=0.5;exitDx=0;exitDy=0;" parent="1" source="jll7YxEorCh3mh36muq5-2" target="jll7YxEorCh3mh36muq5-43" edge="1">
          <mxGeometry relative="1" as="geometry">
            <mxPoint x="480" y="380" as="sourcePoint" />
            <mxPoint x="640" y="380" as="targetPoint" />
          </mxGeometry>
        </mxCell>
        <mxCell id="jll7YxEorCh3mh36muq5-76" value="" style="endArrow=none;html=1;rounded=0;entryX=0.5;entryY=0;entryDx=0;entryDy=0;exitX=1;exitY=0.5;exitDx=0;exitDy=0;" parent="1" source="jll7YxEorCh3mh36muq5-2" target="jll7YxEorCh3mh36muq5-45" edge="1">
          <mxGeometry relative="1" as="geometry">
            <mxPoint x="480" y="380" as="sourcePoint" />
            <mxPoint x="640" y="380" as="targetPoint" />
          </mxGeometry>
        </mxCell>
        <mxCell id="jll7YxEorCh3mh36muq5-77" value="is a" style="shape=rhombus;perimeter=rhombusPerimeter;whiteSpace=wrap;html=1;align=center;" parent="1" vertex="1">
          <mxGeometry x="450" y="500" width="120" height="60" as="geometry" />
        </mxCell>
        <mxCell id="jll7YxEorCh3mh36muq5-78" value="Id" style="ellipse;whiteSpace=wrap;html=1;align=center;fontStyle=4;" parent="1" vertex="1">
          <mxGeometry x="540" y="750" width="100" height="40" as="geometry" />
        </mxCell>
        <mxCell id="jll7YxEorCh3mh36muq5-79" value="DiscType" style="ellipse;whiteSpace=wrap;html=1;align=center;" parent="1" vertex="1">
          <mxGeometry x="610" y="780" width="100" height="40" as="geometry" />
        </mxCell>
        <mxCell id="jll7YxEorCh3mh36muq5-80" value="Director" style="ellipse;whiteSpace=wrap;html=1;align=center;" parent="1" vertex="1">
          <mxGeometry x="610" y="560" width="100" height="40" as="geometry" />
        </mxCell>
        <mxCell id="jll7YxEorCh3mh36muq5-81" value="" style="endArrow=none;html=1;rounded=0;entryX=0;entryY=0.5;entryDx=0;entryDy=0;exitX=1;exitY=0.5;exitDx=0;exitDy=0;" parent="1" source="jll7YxEorCh3mh36muq5-26" target="vUxFdms2RfXF8Cyrx-eV-2" edge="1">
          <mxGeometry relative="1" as="geometry">
            <mxPoint x="530" y="620" as="sourcePoint" />
            <mxPoint x="690" y="620" as="targetPoint" />
          </mxGeometry>
        </mxCell>
        <mxCell id="jll7YxEorCh3mh36muq5-82" value="" style="endArrow=none;html=1;rounded=0;entryX=0.5;entryY=1;entryDx=0;entryDy=0;exitX=1;exitY=0.5;exitDx=0;exitDy=0;" parent="1" source="jll7YxEorCh3mh36muq5-26" target="jll7YxEorCh3mh36muq5-80" edge="1">
          <mxGeometry relative="1" as="geometry">
            <mxPoint x="530" y="620" as="sourcePoint" />
            <mxPoint x="690" y="620" as="targetPoint" />
          </mxGeometry>
        </mxCell>
        <mxCell id="jll7YxEorCh3mh36muq5-83" value="" style="endArrow=none;html=1;rounded=0;entryX=0;entryY=1;entryDx=0;entryDy=0;exitX=1;exitY=0.5;exitDx=0;exitDy=0;" parent="1" source="jll7YxEorCh3mh36muq5-26" target="jll7YxEorCh3mh36muq5-28" edge="1">
          <mxGeometry relative="1" as="geometry">
            <mxPoint x="530" y="620" as="sourcePoint" />
            <mxPoint x="690" y="620" as="targetPoint" />
          </mxGeometry>
        </mxCell>
        <mxCell id="jll7YxEorCh3mh36muq5-84" value="" style="endArrow=none;html=1;rounded=0;entryX=0;entryY=0.5;entryDx=0;entryDy=0;exitX=1;exitY=0.5;exitDx=0;exitDy=0;" parent="1" source="jll7YxEorCh3mh36muq5-26" target="jll7YxEorCh3mh36muq5-30" edge="1">
          <mxGeometry relative="1" as="geometry">
            <mxPoint x="530" y="620" as="sourcePoint" />
            <mxPoint x="690" y="620" as="targetPoint" />
          </mxGeometry>
        </mxCell>
        <mxCell id="jll7YxEorCh3mh36muq5-85" value="" style="endArrow=none;html=1;rounded=0;entryX=0;entryY=0.5;entryDx=0;entryDy=0;exitX=1;exitY=0.5;exitDx=0;exitDy=0;" parent="1" source="jll7YxEorCh3mh36muq5-26" target="jll7YxEorCh3mh36muq5-33" edge="1">
          <mxGeometry relative="1" as="geometry">
            <mxPoint x="530" y="620" as="sourcePoint" />
            <mxPoint x="690" y="620" as="targetPoint" />
          </mxGeometry>
        </mxCell>
        <mxCell id="jll7YxEorCh3mh36muq5-86" value="" style="endArrow=none;html=1;rounded=0;entryX=0;entryY=0;entryDx=0;entryDy=0;exitX=1;exitY=0.5;exitDx=0;exitDy=0;" parent="1" source="jll7YxEorCh3mh36muq5-26" target="jll7YxEorCh3mh36muq5-32" edge="1">
          <mxGeometry relative="1" as="geometry">
            <mxPoint x="530" y="620" as="sourcePoint" />
            <mxPoint x="690" y="620" as="targetPoint" />
          </mxGeometry>
        </mxCell>
        <mxCell id="jll7YxEorCh3mh36muq5-87" value="" style="endArrow=none;html=1;rounded=0;entryX=0.5;entryY=0;entryDx=0;entryDy=0;exitX=1;exitY=0.5;exitDx=0;exitDy=0;" parent="1" source="jll7YxEorCh3mh36muq5-26" target="jll7YxEorCh3mh36muq5-79" edge="1">
          <mxGeometry relative="1" as="geometry">
            <mxPoint x="530" y="620" as="sourcePoint" />
            <mxPoint x="690" y="620" as="targetPoint" />
          </mxGeometry>
        </mxCell>
        <mxCell id="jll7YxEorCh3mh36muq5-88" value="" style="endArrow=none;html=1;rounded=0;entryX=0.5;entryY=0;entryDx=0;entryDy=0;exitX=0.5;exitY=1;exitDx=0;exitDy=0;" parent="1" source="jll7YxEorCh3mh36muq5-77" target="jll7YxEorCh3mh36muq5-26" edge="1">
          <mxGeometry relative="1" as="geometry">
            <mxPoint x="530" y="560" as="sourcePoint" />
            <mxPoint x="690" y="600" as="targetPoint" />
          </mxGeometry>
        </mxCell>
        <mxCell id="jll7YxEorCh3mh36muq5-89" value="1" style="resizable=0;html=1;whiteSpace=wrap;align=right;verticalAlign=bottom;" parent="jll7YxEorCh3mh36muq5-88" connectable="0" vertex="1">
          <mxGeometry x="1" relative="1" as="geometry">
            <mxPoint x="-10" as="offset" />
          </mxGeometry>
        </mxCell>
        <mxCell id="jll7YxEorCh3mh36muq5-90" value="" style="endArrow=none;html=1;rounded=0;entryX=0.5;entryY=1;entryDx=0;entryDy=0;exitX=0.5;exitY=0;exitDx=0;exitDy=0;" parent="1" source="jll7YxEorCh3mh36muq5-77" target="jll7YxEorCh3mh36muq5-2" edge="1">
          <mxGeometry relative="1" as="geometry">
            <mxPoint x="430" y="600" as="sourcePoint" />
            <mxPoint x="590" y="600" as="targetPoint" />
          </mxGeometry>
        </mxCell>
        <mxCell id="jll7YxEorCh3mh36muq5-91" value="1" style="resizable=0;html=1;whiteSpace=wrap;align=right;verticalAlign=bottom;" parent="jll7YxEorCh3mh36muq5-90" connectable="0" vertex="1">
          <mxGeometry x="1" relative="1" as="geometry">
            <mxPoint y="20" as="offset" />
          </mxGeometry>
        </mxCell>
        <mxCell id="jll7YxEorCh3mh36muq5-92" value="Order" style="whiteSpace=wrap;html=1;align=center;" parent="1" vertex="1">
          <mxGeometry x="140" y="430" width="100" height="40" as="geometry" />
        </mxCell>
        <mxCell id="jll7YxEorCh3mh36muq5-93" value="Id" style="ellipse;whiteSpace=wrap;html=1;align=center;" parent="1" vertex="1">
          <mxGeometry x="10" y="370" width="100" height="40" as="geometry" />
        </mxCell>
        <mxCell id="jll7YxEorCh3mh36muq5-95" value="ShippingFees" style="ellipse;whiteSpace=wrap;html=1;align=center;" parent="1" vertex="1">
          <mxGeometry x="10" y="430" width="100" height="40" as="geometry" />
        </mxCell>
        <mxCell id="jll7YxEorCh3mh36muq5-96" value="has" style="shape=rhombus;perimeter=rhombusPerimeter;whiteSpace=wrap;html=1;align=center;" parent="1" vertex="1">
          <mxGeometry x="280" y="390" width="120" height="60" as="geometry" />
        </mxCell>
        <mxCell id="jll7YxEorCh3mh36muq5-97" value="" style="endArrow=none;html=1;rounded=0;entryX=1;entryY=0;entryDx=0;entryDy=0;exitX=0;exitY=1;exitDx=0;exitDy=0;" parent="1" source="jll7YxEorCh3mh36muq5-96" target="jll7YxEorCh3mh36muq5-92" edge="1">
          <mxGeometry relative="1" as="geometry">
            <mxPoint x="190" y="330" as="sourcePoint" />
            <mxPoint x="350" y="330" as="targetPoint" />
          </mxGeometry>
        </mxCell>
        <mxCell id="jll7YxEorCh3mh36muq5-98" value="1" style="resizable=0;html=1;whiteSpace=wrap;align=right;verticalAlign=bottom;" parent="jll7YxEorCh3mh36muq5-97" connectable="0" vertex="1">
          <mxGeometry x="1" relative="1" as="geometry" />
        </mxCell>
        <mxCell id="jll7YxEorCh3mh36muq5-99" value="" style="endArrow=none;html=1;rounded=0;entryX=0;entryY=0.5;entryDx=0;entryDy=0;exitX=1;exitY=0;exitDx=0;exitDy=0;" parent="1" source="jll7YxEorCh3mh36muq5-96" target="jll7YxEorCh3mh36muq5-2" edge="1">
          <mxGeometry relative="1" as="geometry">
            <mxPoint x="190" y="330" as="sourcePoint" />
            <mxPoint x="350" y="330" as="targetPoint" />
          </mxGeometry>
        </mxCell>
        <mxCell id="jll7YxEorCh3mh36muq5-100" value="N" style="resizable=0;html=1;whiteSpace=wrap;align=right;verticalAlign=bottom;" parent="jll7YxEorCh3mh36muq5-99" connectable="0" vertex="1">
          <mxGeometry x="1" relative="1" as="geometry" />
        </mxCell>
        <mxCell id="jll7YxEorCh3mh36muq5-101" value="Quantity" style="ellipse;whiteSpace=wrap;html=1;align=center;" parent="1" vertex="1">
          <mxGeometry x="170" y="360" width="100" height="40" as="geometry" />
        </mxCell>
        <mxCell id="jll7YxEorCh3mh36muq5-102" value="Price" style="ellipse;whiteSpace=wrap;html=1;align=center;" parent="1" vertex="1">
          <mxGeometry x="240" y="330" width="100" height="40" as="geometry" />
        </mxCell>
        <mxCell id="jll7YxEorCh3mh36muq5-103" value="IsRush" style="ellipse;whiteSpace=wrap;html=1;align=center;" parent="1" vertex="1">
          <mxGeometry x="10" y="490" width="100" height="40" as="geometry" />
        </mxCell>
        <mxCell id="jll7YxEorCh3mh36muq5-104" value="RushSupport" style="ellipse;whiteSpace=wrap;html=1;align=center;" parent="1" vertex="1">
          <mxGeometry x="480" y="280" width="100" height="40" as="geometry" />
        </mxCell>
        <mxCell id="jll7YxEorCh3mh36muq5-105" value="" style="endArrow=none;html=1;rounded=0;entryX=0.5;entryY=1;entryDx=0;entryDy=0;exitX=1;exitY=0;exitDx=0;exitDy=0;" parent="1" source="jll7YxEorCh3mh36muq5-2" target="jll7YxEorCh3mh36muq5-104" edge="1">
          <mxGeometry relative="1" as="geometry">
            <mxPoint x="510" y="420" as="sourcePoint" />
            <mxPoint x="670" y="420" as="targetPoint" />
          </mxGeometry>
        </mxCell>
        <mxCell id="jll7YxEorCh3mh36muq5-106" value="" style="endArrow=none;html=1;rounded=0;entryX=0;entryY=0.5;entryDx=0;entryDy=0;exitX=1;exitY=1;exitDx=0;exitDy=0;" parent="1" source="jll7YxEorCh3mh36muq5-93" target="jll7YxEorCh3mh36muq5-92" edge="1">
          <mxGeometry relative="1" as="geometry">
            <mxPoint x="140" y="320" as="sourcePoint" />
            <mxPoint x="300" y="320" as="targetPoint" />
          </mxGeometry>
        </mxCell>
        <mxCell id="jll7YxEorCh3mh36muq5-107" value="" style="endArrow=none;html=1;rounded=0;entryX=0;entryY=0.5;entryDx=0;entryDy=0;exitX=1;exitY=0.5;exitDx=0;exitDy=0;" parent="1" source="jll7YxEorCh3mh36muq5-95" target="jll7YxEorCh3mh36muq5-92" edge="1">
          <mxGeometry relative="1" as="geometry">
            <mxPoint x="140" y="320" as="sourcePoint" />
            <mxPoint x="300" y="320" as="targetPoint" />
          </mxGeometry>
        </mxCell>
        <mxCell id="jll7YxEorCh3mh36muq5-108" value="" style="endArrow=none;html=1;rounded=0;exitX=1;exitY=0;exitDx=0;exitDy=0;" parent="1" source="jll7YxEorCh3mh36muq5-103" edge="1">
          <mxGeometry relative="1" as="geometry">
            <mxPoint x="140" y="320" as="sourcePoint" />
            <mxPoint x="140" y="450" as="targetPoint" />
          </mxGeometry>
        </mxCell>
        <mxCell id="jll7YxEorCh3mh36muq5-109" value="" style="endArrow=none;html=1;rounded=0;entryX=0;entryY=0;entryDx=0;entryDy=0;exitX=0.627;exitY=1.003;exitDx=0;exitDy=0;exitPerimeter=0;" parent="1" source="jll7YxEorCh3mh36muq5-102" target="jll7YxEorCh3mh36muq5-96" edge="1">
          <mxGeometry relative="1" as="geometry">
            <mxPoint x="240" y="320" as="sourcePoint" />
            <mxPoint x="400" y="320" as="targetPoint" />
          </mxGeometry>
        </mxCell>
        <mxCell id="jll7YxEorCh3mh36muq5-110" value="" style="endArrow=none;html=1;rounded=0;entryX=0;entryY=0;entryDx=0;entryDy=0;exitX=1;exitY=1;exitDx=0;exitDy=0;" parent="1" source="jll7YxEorCh3mh36muq5-101" target="jll7YxEorCh3mh36muq5-96" edge="1">
          <mxGeometry relative="1" as="geometry">
            <mxPoint x="240" y="320" as="sourcePoint" />
            <mxPoint x="400" y="320" as="targetPoint" />
          </mxGeometry>
        </mxCell>
        <mxCell id="jll7YxEorCh3mh36muq5-112" value="DeliveryInfo" style="whiteSpace=wrap;html=1;align=center;" parent="1" vertex="1">
          <mxGeometry x="240" y="670" width="100" height="40" as="geometry" />
        </mxCell>
        <mxCell id="jll7YxEorCh3mh36muq5-113" value="PhoneNumber" style="ellipse;whiteSpace=wrap;html=1;align=center;" parent="1" vertex="1">
          <mxGeometry x="370" y="730" width="100" height="40" as="geometry" />
        </mxCell>
        <mxCell id="jll7YxEorCh3mh36muq5-114" value="Name" style="ellipse;whiteSpace=wrap;html=1;align=center;" parent="1" vertex="1">
          <mxGeometry x="340" y="770" width="100" height="40" as="geometry" />
        </mxCell>
        <mxCell id="jll7YxEorCh3mh36muq5-115" value="Id" style="ellipse;whiteSpace=wrap;html=1;align=center;fontStyle=4;" parent="1" vertex="1">
          <mxGeometry x="395" y="690" width="100" height="40" as="geometry" />
        </mxCell>
        <mxCell id="jll7YxEorCh3mh36muq5-117" value="Address" style="ellipse;whiteSpace=wrap;html=1;align=center;" parent="1" vertex="1">
          <mxGeometry x="395" y="650" width="100" height="40" as="geometry" />
        </mxCell>
        <mxCell id="jll7YxEorCh3mh36muq5-118" value="Instructions" style="ellipse;whiteSpace=wrap;html=1;align=center;" parent="1" vertex="1">
          <mxGeometry x="340" y="570" width="100" height="40" as="geometry" />
        </mxCell>
        <mxCell id="jll7YxEorCh3mh36muq5-119" value="Province" style="ellipse;whiteSpace=wrap;html=1;align=center;" parent="1" vertex="1">
          <mxGeometry x="370" y="610" width="100" height="40" as="geometry" />
        </mxCell>
        <mxCell id="jll7YxEorCh3mh36muq5-120" value="" style="endArrow=none;html=1;rounded=0;entryX=0;entryY=1;entryDx=0;entryDy=0;exitX=0.75;exitY=0;exitDx=0;exitDy=0;" parent="1" source="jll7YxEorCh3mh36muq5-112" target="jll7YxEorCh3mh36muq5-118" edge="1">
          <mxGeometry relative="1" as="geometry">
            <mxPoint x="250" y="700" as="sourcePoint" />
            <mxPoint x="410" y="700" as="targetPoint" />
          </mxGeometry>
        </mxCell>
        <mxCell id="jll7YxEorCh3mh36muq5-121" value="" style="endArrow=none;html=1;rounded=0;entryX=0;entryY=0;entryDx=0;entryDy=0;exitX=0.75;exitY=1;exitDx=0;exitDy=0;" parent="1" source="jll7YxEorCh3mh36muq5-112" target="jll7YxEorCh3mh36muq5-114" edge="1">
          <mxGeometry relative="1" as="geometry">
            <mxPoint x="250" y="700" as="sourcePoint" />
            <mxPoint x="280" y="780" as="targetPoint" />
          </mxGeometry>
        </mxCell>
        <mxCell id="jll7YxEorCh3mh36muq5-122" value="" style="endArrow=none;html=1;rounded=0;entryX=0;entryY=1;entryDx=0;entryDy=0;exitX=1;exitY=0.5;exitDx=0;exitDy=0;" parent="1" source="jll7YxEorCh3mh36muq5-112" target="jll7YxEorCh3mh36muq5-119" edge="1">
          <mxGeometry relative="1" as="geometry">
            <mxPoint x="250" y="700" as="sourcePoint" />
            <mxPoint x="410" y="700" as="targetPoint" />
          </mxGeometry>
        </mxCell>
        <mxCell id="jll7YxEorCh3mh36muq5-123" value="" style="endArrow=none;html=1;rounded=0;entryX=0;entryY=0.5;entryDx=0;entryDy=0;exitX=1;exitY=0.5;exitDx=0;exitDy=0;" parent="1" source="jll7YxEorCh3mh36muq5-112" target="jll7YxEorCh3mh36muq5-117" edge="1">
          <mxGeometry relative="1" as="geometry">
            <mxPoint x="250" y="700" as="sourcePoint" />
            <mxPoint x="410" y="700" as="targetPoint" />
          </mxGeometry>
        </mxCell>
        <mxCell id="jll7YxEorCh3mh36muq5-124" value="" style="endArrow=none;html=1;rounded=0;entryX=0;entryY=0.5;entryDx=0;entryDy=0;exitX=1;exitY=0.5;exitDx=0;exitDy=0;" parent="1" source="jll7YxEorCh3mh36muq5-112" target="jll7YxEorCh3mh36muq5-115" edge="1">
          <mxGeometry relative="1" as="geometry">
            <mxPoint x="250" y="700" as="sourcePoint" />
            <mxPoint x="410" y="700" as="targetPoint" />
          </mxGeometry>
        </mxCell>
        <mxCell id="jll7YxEorCh3mh36muq5-125" value="" style="endArrow=none;html=1;rounded=0;entryX=0;entryY=0;entryDx=0;entryDy=0;exitX=1;exitY=0.5;exitDx=0;exitDy=0;" parent="1" source="jll7YxEorCh3mh36muq5-112" target="jll7YxEorCh3mh36muq5-113" edge="1">
          <mxGeometry relative="1" as="geometry">
            <mxPoint x="250" y="700" as="sourcePoint" />
            <mxPoint x="410" y="700" as="targetPoint" />
          </mxGeometry>
        </mxCell>
        <mxCell id="jll7YxEorCh3mh36muq5-126" value="has" style="shape=rhombus;perimeter=rhombusPerimeter;whiteSpace=wrap;html=1;align=center;" parent="1" vertex="1">
          <mxGeometry x="190" y="570" width="120" height="60" as="geometry" />
        </mxCell>
        <mxCell id="jll7YxEorCh3mh36muq5-128" value="" style="endArrow=none;html=1;rounded=0;entryX=0.5;entryY=0;entryDx=0;entryDy=0;exitX=0.5;exitY=1;exitDx=0;exitDy=0;" parent="1" source="jll7YxEorCh3mh36muq5-126" target="jll7YxEorCh3mh36muq5-112" edge="1">
          <mxGeometry relative="1" as="geometry">
            <mxPoint x="257.5" y="630" as="sourcePoint" />
            <mxPoint x="420" y="650" as="targetPoint" />
          </mxGeometry>
        </mxCell>
        <mxCell id="jll7YxEorCh3mh36muq5-129" value="1" style="resizable=0;html=1;whiteSpace=wrap;align=right;verticalAlign=bottom;" parent="jll7YxEorCh3mh36muq5-128" connectable="0" vertex="1">
          <mxGeometry x="1" relative="1" as="geometry">
            <mxPoint as="offset" />
          </mxGeometry>
        </mxCell>
        <mxCell id="jll7YxEorCh3mh36muq5-130" value="" style="endArrow=none;html=1;rounded=0;entryX=0.5;entryY=1;entryDx=0;entryDy=0;exitX=0.5;exitY=0;exitDx=0;exitDy=0;" parent="1" source="jll7YxEorCh3mh36muq5-126" target="jll7YxEorCh3mh36muq5-92" edge="1">
          <mxGeometry relative="1" as="geometry">
            <mxPoint x="170" y="600" as="sourcePoint" />
            <mxPoint x="330" y="600" as="targetPoint" />
          </mxGeometry>
        </mxCell>
        <mxCell id="jll7YxEorCh3mh36muq5-131" value="1" style="resizable=0;html=1;whiteSpace=wrap;align=right;verticalAlign=bottom;" parent="jll7YxEorCh3mh36muq5-130" connectable="0" vertex="1">
          <mxGeometry x="1" relative="1" as="geometry">
            <mxPoint x="20" y="20" as="offset" />
          </mxGeometry>
        </mxCell>
        <mxCell id="jll7YxEorCh3mh36muq5-132" value="Invoice" style="whiteSpace=wrap;html=1;align=center;" parent="1" vertex="1">
          <mxGeometry x="20" y="700" width="100" height="40" as="geometry" />
        </mxCell>
        <mxCell id="jll7YxEorCh3mh36muq5-133" value="TotalAmount" style="ellipse;whiteSpace=wrap;html=1;align=center;" parent="1" vertex="1">
          <mxGeometry x="120" y="730" width="100" height="40" as="geometry" />
        </mxCell>
        <mxCell id="jll7YxEorCh3mh36muq5-134" value="Id" style="ellipse;whiteSpace=wrap;html=1;align=center;fontStyle=4;" parent="1" vertex="1">
          <mxGeometry x="120" y="670" width="100" height="40" as="geometry" />
        </mxCell>
        <mxCell id="jll7YxEorCh3mh36muq5-135" style="edgeStyle=orthogonalEdgeStyle;rounded=0;orthogonalLoop=1;jettySize=auto;html=1;exitX=0.5;exitY=1;exitDx=0;exitDy=0;" parent="1" edge="1">
          <mxGeometry relative="1" as="geometry">
            <mxPoint x="232.5" y="770" as="sourcePoint" />
            <mxPoint x="232.5" y="770" as="targetPoint" />
          </mxGeometry>
        </mxCell>
        <mxCell id="jll7YxEorCh3mh36muq5-137" value="has" style="shape=rhombus;perimeter=rhombusPerimeter;whiteSpace=wrap;html=1;align=center;" parent="1" vertex="1">
          <mxGeometry x="30" y="570" width="120" height="60" as="geometry" />
        </mxCell>
        <mxCell id="jll7YxEorCh3mh36muq5-138" value="" style="endArrow=none;html=1;rounded=0;entryX=0.5;entryY=1;entryDx=0;entryDy=0;exitX=0.5;exitY=0;exitDx=0;exitDy=0;" parent="1" source="jll7YxEorCh3mh36muq5-137" target="jll7YxEorCh3mh36muq5-92" edge="1">
          <mxGeometry relative="1" as="geometry">
            <mxPoint x="60" y="770" as="sourcePoint" />
            <mxPoint x="220" y="770" as="targetPoint" />
          </mxGeometry>
        </mxCell>
        <mxCell id="jll7YxEorCh3mh36muq5-139" value="1" style="resizable=0;html=1;whiteSpace=wrap;align=right;verticalAlign=bottom;" parent="jll7YxEorCh3mh36muq5-138" connectable="0" vertex="1">
          <mxGeometry x="1" relative="1" as="geometry">
            <mxPoint x="-20" y="20" as="offset" />
          </mxGeometry>
        </mxCell>
        <mxCell id="jll7YxEorCh3mh36muq5-140" value="" style="endArrow=none;html=1;rounded=0;entryX=0.5;entryY=0;entryDx=0;entryDy=0;exitX=0.5;exitY=1;exitDx=0;exitDy=0;" parent="1" source="jll7YxEorCh3mh36muq5-137" target="jll7YxEorCh3mh36muq5-132" edge="1">
          <mxGeometry relative="1" as="geometry">
            <mxPoint x="60" y="740" as="sourcePoint" />
            <mxPoint x="220" y="740" as="targetPoint" />
          </mxGeometry>
        </mxCell>
        <mxCell id="jll7YxEorCh3mh36muq5-141" value="1" style="resizable=0;html=1;whiteSpace=wrap;align=right;verticalAlign=bottom;" parent="jll7YxEorCh3mh36muq5-140" connectable="0" vertex="1">
          <mxGeometry x="1" relative="1" as="geometry" />
        </mxCell>
        <mxCell id="jll7YxEorCh3mh36muq5-142" value="" style="endArrow=none;html=1;rounded=0;entryX=0;entryY=1;entryDx=0;entryDy=0;exitX=1;exitY=0.5;exitDx=0;exitDy=0;" parent="1" source="jll7YxEorCh3mh36muq5-132" target="jll7YxEorCh3mh36muq5-134" edge="1">
          <mxGeometry relative="1" as="geometry">
            <mxPoint x="50" y="760" as="sourcePoint" />
            <mxPoint x="210" y="760" as="targetPoint" />
          </mxGeometry>
        </mxCell>
        <mxCell id="jll7YxEorCh3mh36muq5-143" value="" style="endArrow=none;html=1;rounded=0;entryX=0;entryY=0;entryDx=0;entryDy=0;exitX=1;exitY=0.5;exitDx=0;exitDy=0;" parent="1" source="jll7YxEorCh3mh36muq5-132" target="jll7YxEorCh3mh36muq5-133" edge="1">
          <mxGeometry relative="1" as="geometry">
            <mxPoint x="70" y="780" as="sourcePoint" />
            <mxPoint x="230" y="780" as="targetPoint" />
          </mxGeometry>
        </mxCell>
        <mxCell id="jll7YxEorCh3mh36muq5-144" value="PaymentTransaction" style="whiteSpace=wrap;html=1;align=center;" parent="1" vertex="1">
          <mxGeometry x="159.62" y="920" width="120" height="40" as="geometry" />
        </mxCell>
        <mxCell id="jll7YxEorCh3mh36muq5-145" value="Id" style="ellipse;whiteSpace=wrap;html=1;align=center;fontStyle=4;" parent="1" vertex="1">
          <mxGeometry x="9.62" y="900" width="100" height="40" as="geometry" />
        </mxCell>
        <mxCell id="jll7YxEorCh3mh36muq5-146" value="Method" style="ellipse;whiteSpace=wrap;html=1;align=center;" parent="1" vertex="1">
          <mxGeometry x="9.62" y="950" width="100" height="40" as="geometry" />
        </mxCell>
        <mxCell id="jll7YxEorCh3mh36muq5-147" value="CreateTime" style="ellipse;whiteSpace=wrap;html=1;align=center;" parent="1" vertex="1">
          <mxGeometry x="119.62" y="1000" width="100" height="40" as="geometry" />
        </mxCell>
        <mxCell id="jll7YxEorCh3mh36muq5-148" value="Content" style="ellipse;whiteSpace=wrap;html=1;align=center;" parent="1" vertex="1">
          <mxGeometry x="9.62" y="1000" width="100" height="40" as="geometry" />
        </mxCell>
        <mxCell id="jll7YxEorCh3mh36muq5-149" value="has" style="shape=rhombus;perimeter=rhombusPerimeter;whiteSpace=wrap;html=1;align=center;" parent="1" vertex="1">
          <mxGeometry x="50" y="800" width="120" height="60" as="geometry" />
        </mxCell>
        <mxCell id="jll7YxEorCh3mh36muq5-150" value="" style="endArrow=none;html=1;rounded=0;entryX=0;entryY=0;entryDx=0;entryDy=0;exitX=0.5;exitY=1;exitDx=0;exitDy=0;" parent="1" source="jll7YxEorCh3mh36muq5-149" target="jll7YxEorCh3mh36muq5-144" edge="1">
          <mxGeometry relative="1" as="geometry">
            <mxPoint x="100" y="940" as="sourcePoint" />
            <mxPoint x="260" y="940" as="targetPoint" />
          </mxGeometry>
        </mxCell>
        <mxCell id="jll7YxEorCh3mh36muq5-151" value="1" style="resizable=0;html=1;whiteSpace=wrap;align=right;verticalAlign=bottom;" parent="jll7YxEorCh3mh36muq5-150" connectable="0" vertex="1">
          <mxGeometry x="1" relative="1" as="geometry">
            <mxPoint x="10" as="offset" />
          </mxGeometry>
        </mxCell>
        <mxCell id="jll7YxEorCh3mh36muq5-152" value="" style="endArrow=none;html=1;rounded=0;entryX=0.5;entryY=1;entryDx=0;entryDy=0;exitX=0.5;exitY=0;exitDx=0;exitDy=0;" parent="1" source="jll7YxEorCh3mh36muq5-149" target="jll7YxEorCh3mh36muq5-132" edge="1">
          <mxGeometry relative="1" as="geometry">
            <mxPoint x="100" y="940" as="sourcePoint" />
            <mxPoint x="260" y="940" as="targetPoint" />
          </mxGeometry>
        </mxCell>
        <mxCell id="jll7YxEorCh3mh36muq5-153" value="1" style="resizable=0;html=1;whiteSpace=wrap;align=right;verticalAlign=bottom;" parent="jll7YxEorCh3mh36muq5-152" connectable="0" vertex="1">
          <mxGeometry x="1" relative="1" as="geometry">
            <mxPoint x="20" y="20" as="offset" />
          </mxGeometry>
        </mxCell>
        <mxCell id="jll7YxEorCh3mh36muq5-154" value="" style="endArrow=none;html=1;rounded=0;entryX=0;entryY=0.5;entryDx=0;entryDy=0;exitX=1;exitY=0.5;exitDx=0;exitDy=0;" parent="1" source="jll7YxEorCh3mh36muq5-145" target="jll7YxEorCh3mh36muq5-144" edge="1">
          <mxGeometry relative="1" as="geometry">
            <mxPoint x="129.62" y="1010" as="sourcePoint" />
            <mxPoint x="289.62" y="1010" as="targetPoint" />
          </mxGeometry>
        </mxCell>
        <mxCell id="jll7YxEorCh3mh36muq5-156" value="" style="endArrow=none;html=1;rounded=0;entryX=0;entryY=0.5;entryDx=0;entryDy=0;exitX=1;exitY=0.5;exitDx=0;exitDy=0;" parent="1" source="jll7YxEorCh3mh36muq5-146" target="jll7YxEorCh3mh36muq5-144" edge="1">
          <mxGeometry relative="1" as="geometry">
            <mxPoint x="129.62" y="1010" as="sourcePoint" />
            <mxPoint x="289.62" y="1010" as="targetPoint" />
          </mxGeometry>
        </mxCell>
        <mxCell id="jll7YxEorCh3mh36muq5-157" value="" style="endArrow=none;html=1;rounded=0;entryX=0;entryY=0.5;entryDx=0;entryDy=0;exitX=1;exitY=0;exitDx=0;exitDy=0;" parent="1" source="jll7YxEorCh3mh36muq5-148" target="jll7YxEorCh3mh36muq5-144" edge="1">
          <mxGeometry relative="1" as="geometry">
            <mxPoint x="129.62" y="1010" as="sourcePoint" />
            <mxPoint x="289.62" y="1010" as="targetPoint" />
          </mxGeometry>
        </mxCell>
        <mxCell id="jll7YxEorCh3mh36muq5-158" value="" style="endArrow=none;html=1;rounded=0;entryX=0.25;entryY=1;entryDx=0;entryDy=0;exitX=0.5;exitY=0;exitDx=0;exitDy=0;" parent="1" source="jll7YxEorCh3mh36muq5-147" target="jll7YxEorCh3mh36muq5-144" edge="1">
          <mxGeometry relative="1" as="geometry">
            <mxPoint x="129.62" y="1010" as="sourcePoint" />
            <mxPoint x="289.62" y="1010" as="targetPoint" />
          </mxGeometry>
        </mxCell>
        <mxCell id="jll7YxEorCh3mh36muq5-159" value="CreditCard" style="whiteSpace=wrap;html=1;align=center;" parent="1" vertex="1">
          <mxGeometry x="510" y="920" width="100" height="40" as="geometry" />
        </mxCell>
        <mxCell id="jll7YxEorCh3mh36muq5-160" value="Id" style="ellipse;whiteSpace=wrap;html=1;align=center;fontStyle=4;" parent="1" vertex="1">
          <mxGeometry x="650" y="840" width="100" height="40" as="geometry" />
        </mxCell>
        <mxCell id="jll7YxEorCh3mh36muq5-161" value="Owner" style="ellipse;whiteSpace=wrap;html=1;align=center;" parent="1" vertex="1">
          <mxGeometry x="650" y="920" width="100" height="40" as="geometry" />
        </mxCell>
        <mxCell id="jll7YxEorCh3mh36muq5-163" value="CvvCode" style="ellipse;whiteSpace=wrap;html=1;align=center;" parent="1" vertex="1">
          <mxGeometry x="650" y="1000" width="100" height="40" as="geometry" />
        </mxCell>
        <mxCell id="jll7YxEorCh3mh36muq5-165" value="ExpirationDate" style="ellipse;whiteSpace=wrap;html=1;align=center;" parent="1" vertex="1">
          <mxGeometry x="700" y="960" width="100" height="40" as="geometry" />
        </mxCell>
        <mxCell id="jll7YxEorCh3mh36muq5-166" value="CardCode" style="ellipse;whiteSpace=wrap;html=1;align=center;" parent="1" vertex="1">
          <mxGeometry x="700" y="880" width="100" height="40" as="geometry" />
        </mxCell>
        <mxCell id="jll7YxEorCh3mh36muq5-168" value="" style="endArrow=none;html=1;rounded=0;entryX=0;entryY=1;entryDx=0;entryDy=0;exitX=1;exitY=0.5;exitDx=0;exitDy=0;" parent="1" source="jll7YxEorCh3mh36muq5-159" target="jll7YxEorCh3mh36muq5-160" edge="1">
          <mxGeometry relative="1" as="geometry">
            <mxPoint x="520" y="870" as="sourcePoint" />
            <mxPoint x="680" y="870" as="targetPoint" />
          </mxGeometry>
        </mxCell>
        <mxCell id="jll7YxEorCh3mh36muq5-169" value="" style="endArrow=none;html=1;rounded=0;entryX=0;entryY=0.5;entryDx=0;entryDy=0;exitX=1;exitY=0.5;exitDx=0;exitDy=0;" parent="1" source="jll7YxEorCh3mh36muq5-159" target="jll7YxEorCh3mh36muq5-161" edge="1">
          <mxGeometry relative="1" as="geometry">
            <mxPoint x="520" y="870" as="sourcePoint" />
            <mxPoint x="680" y="870" as="targetPoint" />
          </mxGeometry>
        </mxCell>
        <mxCell id="jll7YxEorCh3mh36muq5-170" value="" style="endArrow=none;html=1;rounded=0;entryX=0;entryY=0.5;entryDx=0;entryDy=0;exitX=1;exitY=0.5;exitDx=0;exitDy=0;" parent="1" source="jll7YxEorCh3mh36muq5-159" target="jll7YxEorCh3mh36muq5-166" edge="1">
          <mxGeometry relative="1" as="geometry">
            <mxPoint x="520" y="870" as="sourcePoint" />
            <mxPoint x="680" y="870" as="targetPoint" />
          </mxGeometry>
        </mxCell>
        <mxCell id="jll7YxEorCh3mh36muq5-171" value="" style="endArrow=none;html=1;rounded=0;entryX=0;entryY=0.5;entryDx=0;entryDy=0;exitX=1;exitY=0.5;exitDx=0;exitDy=0;" parent="1" source="jll7YxEorCh3mh36muq5-159" target="jll7YxEorCh3mh36muq5-165" edge="1">
          <mxGeometry relative="1" as="geometry">
            <mxPoint x="520" y="870" as="sourcePoint" />
            <mxPoint x="680" y="870" as="targetPoint" />
          </mxGeometry>
        </mxCell>
        <mxCell id="jll7YxEorCh3mh36muq5-172" value="" style="endArrow=none;html=1;rounded=0;entryX=0;entryY=0;entryDx=0;entryDy=0;exitX=1;exitY=0.5;exitDx=0;exitDy=0;" parent="1" source="jll7YxEorCh3mh36muq5-159" target="jll7YxEorCh3mh36muq5-163" edge="1">
          <mxGeometry relative="1" as="geometry">
            <mxPoint x="610" y="870" as="sourcePoint" />
            <mxPoint x="680" y="870" as="targetPoint" />
          </mxGeometry>
        </mxCell>
        <mxCell id="jll7YxEorCh3mh36muq5-173" value="has" style="shape=rhombus;perimeter=rhombusPerimeter;whiteSpace=wrap;html=1;align=center;" parent="1" vertex="1">
          <mxGeometry x="330" y="910" width="120" height="60" as="geometry" />
        </mxCell>
        <mxCell id="jll7YxEorCh3mh36muq5-174" value="" style="endArrow=none;html=1;rounded=0;entryX=0;entryY=0.5;entryDx=0;entryDy=0;exitX=1;exitY=0.5;exitDx=0;exitDy=0;" parent="1" source="jll7YxEorCh3mh36muq5-173" target="jll7YxEorCh3mh36muq5-159" edge="1">
          <mxGeometry relative="1" as="geometry">
            <mxPoint x="410" y="900" as="sourcePoint" />
            <mxPoint x="570" y="900" as="targetPoint" />
          </mxGeometry>
        </mxCell>
        <mxCell id="jll7YxEorCh3mh36muq5-175" value="1" style="resizable=0;html=1;whiteSpace=wrap;align=right;verticalAlign=bottom;" parent="jll7YxEorCh3mh36muq5-174" connectable="0" vertex="1">
          <mxGeometry x="1" relative="1" as="geometry" />
        </mxCell>
        <mxCell id="jll7YxEorCh3mh36muq5-176" value="" style="endArrow=none;html=1;rounded=0;entryX=1;entryY=0.5;entryDx=0;entryDy=0;exitX=0;exitY=0.5;exitDx=0;exitDy=0;" parent="1" source="jll7YxEorCh3mh36muq5-173" target="jll7YxEorCh3mh36muq5-144" edge="1">
          <mxGeometry relative="1" as="geometry">
            <mxPoint x="410" y="900" as="sourcePoint" />
            <mxPoint x="570" y="900" as="targetPoint" />
          </mxGeometry>
        </mxCell>
        <mxCell id="jll7YxEorCh3mh36muq5-177" value="N" style="resizable=0;html=1;whiteSpace=wrap;align=right;verticalAlign=bottom;" parent="jll7YxEorCh3mh36muq5-176" connectable="0" vertex="1">
          <mxGeometry x="1" relative="1" as="geometry">
            <mxPoint x="20" as="offset" />
          </mxGeometry>
        </mxCell>
        <mxCell id="vUxFdms2RfXF8Cyrx-eV-2" value="FilmType" style="ellipse;whiteSpace=wrap;html=1;align=center;" vertex="1" parent="1">
          <mxGeometry x="690" y="670" width="100" height="40" as="geometry" />
        </mxCell>
        <mxCell id="vUxFdms2RfXF8Cyrx-eV-4" value="" style="endArrow=none;html=1;rounded=0;entryX=0.5;entryY=0;entryDx=0;entryDy=0;exitX=0.75;exitY=1;exitDx=0;exitDy=0;" edge="1" parent="1" source="jll7YxEorCh3mh36muq5-26" target="jll7YxEorCh3mh36muq5-78">
          <mxGeometry relative="1" as="geometry">
            <mxPoint x="520" y="600" as="sourcePoint" />
            <mxPoint x="680" y="600" as="targetPoint" />
          </mxGeometry>
        </mxCell>
      </root>
    </mxGraphModel>
  </diagram>
</mxfile>
